# xmcd
#
# Track frame offsets:
#	150
#	12520
#	22975
#	34562
#	57745
#	75035
#	92112
#	108800
#	126965
#	145202
#	160107
#
# Disc length: 2298
#
# Revision: 2
# Processed by: cddbd v1.5.1PL0 Copyright (c) Steve Scherf et al.
# Submitted via: EasyCDDAExtractor 5.0.6
# Normalized: r1:DSETVAR1
#
DISCID=7f08f80b
DTITLE=Various Artist - Raw Blues Volume One
DYEAR=1900
DGENRE=Blues
TTITLE0=John Lee Hooker - Crawling King Snake
TTITLE1=Jimmy Reed - AintThat Lovin You Baby
TTITLE2=Ray Charles - Ray Charles Blues
TTITLE3=Mississippi John Hirt - The Angels Laid Him Away
TTITLE4=John Lee Hooker - Blues Before Sunrise
TTITLE5=Bo Diddley - Say Boss Man
TTITLE6=Mike Bloomfield - Cherry Red
TTITLE7=Little Walter And Otis Rush - May Be The Last Time
TTITLE8=Lightning Slim - Hoodoo Blues
TTITLE9=Mississippi John Hirt - Baby Whats Wrong With You
TTITLE10=Lightnin Hopkins - Shaggy Dog-Lightnin Hopkins
EXTD=
EXTT0=
EXTT1=
EXTT2=
EXTT3=
EXTT4=
EXTT5=
EXTT6=
EXTT7=
EXTT8=
EXTT9=
EXTT10=
PLAYORDER=
